<svg width="105" height="34" viewBox="0 0 105 34" fill="none" xmlns="http://www.w3.org/2000/svg">
<path d="M21.2524 23.9772C21.2524 23.9772 27.0934 28.0504 29.0846 32.4589L31.4602 30.6141C31.4602 30.6141 29.5973 28.7975 29.4308 27.0371" stroke="#181818" stroke-width="1.09384" stroke-linecap="round"/>
<path d="M5.95194 13.5907C5.51242 20.0835 10.4872 19.4429 10.4872 19.4429M10.4872 19.4429C10.4872 19.4429 11.4585 19.4151 11.4585 17.4957M10.4872 19.4429C11.5248 23.759 17.6085 22.976 18.3874 22.4194C18.3874 22.4194 20.0286 25.1733 25.8424 23.2539M25.8424 23.2539C25.8424 23.2539 25.0612 24.584 26.3431 25.8409C27.6251 27.0979 28.8465 27.4162 31.6006 26.3973C34.859 24.9616 35.6063 22.2441 35.6063 22.2441C40.148 19.7296 37.8296 14.0009 37.8296 14.0009C37.8296 14.0009 39.4477 11.8104 37.8296 9.10813C34.7015 3.88437 29.26 3.47272 29.26 3.47272M25.8424 23.2539C25.8424 23.2539 26.2298 22.2441 28.1196 22.2441M11.4585 4.2931C11.4585 4.2931 12.4109 2.9745 15.758 1.8893C24.0581 -0.801751 29.26 3.47272 29.26 3.47272M29.26 3.47272C29.26 3.47272 30.7006 6.0756 29.3956 7.54042M30.433 23.4449C29.8139 22.7858 29.3578 22.2441 28.1196 22.2441M26.1484 6.48003C26.1484 6.48003 26.6213 8.56634 28.4129 8.1557C28.8534 8.05473 29.1624 7.80217 29.3956 7.54042M29.3956 7.54042C29.3956 7.54042 30.0429 10.0128 32.157 9.40086M28.1196 22.2441C28.1196 22.2441 29.2918 18.8409 24.7575 18.3581M21.6976 19.9158C22.2515 18.8898 23.7598 18.2518 24.7575 18.3581M24.7575 18.3581C24.7575 18.3581 23.5379 14.8412 27.0178 15.2713" stroke="#181818" stroke-width="1.09384" stroke-linecap="round"/>
<path d="M9.10608 13.7335C6.34494 13.7394 4.23121 12.5516 2.77364 11.3087C1.67656 10.3731 0.965873 9.41788 0.652391 8.9531C0.974933 8.49176 1.69824 7.55372 2.80685 6.63911C4.26787 5.43375 6.3741 4.28754 9.10612 4.29313C11.8252 4.29873 13.9199 5.44287 15.3731 6.64419C16.4772 7.55699 17.1974 8.49228 17.5191 8.95324C17.2068 9.41729 16.4992 10.3698 15.4063 11.3036C13.9566 12.5422 11.8544 13.7276 9.10608 13.7335Z" stroke="#181818" stroke-width="1.09384"/>
<path d="M9.06848 11.7931C10.6048 11.7931 11.8502 10.5477 11.8502 9.01141C11.8502 7.4751 10.6048 6.22967 9.06848 6.22967C7.53217 6.22967 6.28674 7.4751 6.28674 9.01141C6.28674 10.5477 7.53217 11.7931 9.06848 11.7931Z" fill="#181818"/>
<path d="M63.0096 9.86719V20.9531C63.0096 22.2188 62.7245 23.3281 62.1542 24.2812C61.5917 25.2344 60.7753 25.9648 59.705 26.4727C58.6346 26.9805 57.369 27.2344 55.9081 27.2344C53.705 27.2344 51.994 26.6719 50.7753 25.5469C49.5565 24.4141 48.9471 22.8672 48.9471 20.9062V9.86719H52.5682V20.3555C52.5682 21.6758 52.8339 22.6445 53.3651 23.2617C53.8964 23.8789 54.7753 24.1875 56.0018 24.1875C57.1893 24.1875 58.0487 23.8789 58.58 23.2617C59.119 22.6367 59.3885 21.6602 59.3885 20.332V9.86719H63.0096ZM65.412 32.0391C64.5917 32.0391 63.8768 31.9531 63.2675 31.7812V28.7578C63.8925 28.9141 64.4628 28.9922 64.9784 28.9922C65.7753 28.9922 66.3456 28.7422 66.6893 28.2422C67.0331 27.75 67.205 26.9766 67.205 25.9219V9.86719H70.8378V25.8984C70.8378 27.8984 70.3807 29.4219 69.4667 30.4688C68.5526 31.5156 67.201 32.0391 65.412 32.0391ZM78.7831 17.9297H79.9784C81.0956 17.9297 81.9315 17.7109 82.4862 17.2734C83.0409 16.8281 83.3182 16.1836 83.3182 15.3398C83.3182 14.4883 83.0839 13.8594 82.6151 13.4531C82.1542 13.0469 81.4276 12.8438 80.4354 12.8438H78.7831V17.9297ZM86.9862 15.2109C86.9862 17.0547 86.4081 18.4648 85.2518 19.4414C84.1034 20.418 82.4667 20.9062 80.3417 20.9062H78.7831V27H75.1503V9.86719H80.6229C82.701 9.86719 84.2792 10.3164 85.3573 11.2148C86.4432 12.1055 86.9862 13.4375 86.9862 15.2109ZM90.2206 9.86719H95.5526C97.9823 9.86719 99.744 10.2148 100.838 10.9102C101.939 11.5977 102.49 12.6953 102.49 14.2031C102.49 15.2266 102.248 16.0664 101.764 16.7227C101.287 17.3789 100.65 17.7734 99.8534 17.9062V18.0234C100.939 18.2656 101.721 18.7188 102.197 19.3828C102.682 20.0469 102.924 20.9297 102.924 22.0312C102.924 23.5938 102.357 24.8125 101.224 25.6875C100.099 26.5625 98.5682 27 96.6307 27H90.2206V9.86719ZM93.8534 16.6523H95.9628C96.9471 16.6523 97.6581 16.5 98.0956 16.1953C98.5409 15.8906 98.7635 15.3867 98.7635 14.6836C98.7635 14.0273 98.5214 13.5586 98.037 13.2773C97.5604 12.9883 96.8026 12.8438 95.7635 12.8438H93.8534V16.6523ZM93.8534 19.5352V24H96.2206C97.2206 24 97.9589 23.8086 98.4354 23.4258C98.912 23.043 99.1503 22.457 99.1503 21.668C99.1503 20.2461 98.1346 19.5352 96.1034 19.5352H93.8534Z" fill="#181818"/>
</svg>
