<svg width="600" height="600" viewBox="0 0 600 600" fill="none" xmlns="http://www.w3.org/2000/svg">
<rect width="600" height="600" rx="100" fill="#FAFAFA"/>
<path d="M325.774 382.829C325.774 382.829 400.468 434.918 425.932 491.292L456.31 467.701C456.31 467.701 432.487 444.471 430.358 421.959" stroke="#181818" stroke-width="20" stroke-linecap="round"/>
<path d="M130.112 250.008C124.492 333.038 188.109 324.846 188.109 324.846M188.109 324.846C188.109 324.846 200.53 324.49 200.53 299.945M188.109 324.846C201.378 380.039 279.175 370.026 289.135 362.909C289.135 362.909 310.123 398.126 384.47 373.581M384.47 373.581C384.47 373.581 374.48 390.589 390.873 406.663C407.266 422.737 422.886 426.808 458.105 413.778C499.772 395.419 509.329 360.667 509.329 360.667C567.408 328.511 537.76 255.254 537.76 255.254M384.47 373.581C384.47 373.581 389.423 360.667 413.59 360.667M200.53 131.112C200.53 131.112 212.709 114.25 255.511 100.372C361.651 65.9594 428.173 120.621 428.173 120.621M428.173 120.621C428.173 120.621 497.758 125.885 537.76 192.686C558.453 227.241 537.76 255.254 537.76 255.254M428.173 120.621C428.173 120.621 446.596 153.906 429.907 172.638M537.76 255.254C537.76 255.254 524 228 501.5 252.5M443.174 376.022C435.257 367.594 429.423 360.667 413.59 360.667M388.383 159.078C388.383 159.078 394.43 185.757 417.34 180.506C422.973 179.215 426.924 175.985 429.907 172.638M429.907 172.638C429.907 172.638 438.184 204.255 465.219 196.429M413.59 360.667C413.59 360.667 428.58 317.147 370.596 310.973M331.466 330.893C338.55 317.772 357.837 309.614 370.596 310.973M370.596 310.973C370.596 310.973 355 266 399.5 271.5" stroke="#181818" stroke-width="20" stroke-linecap="round"/>
<path d="M170.441 248.829C136.057 248.902 109.695 234.124 91.4196 218.539C78.8845 207.849 70.3761 196.957 66.0126 190.734C70.4865 184.576 79.1386 173.882 91.8067 163.431C110.126 148.318 136.403 134.049 170.442 134.118C204.32 134.188 230.454 148.432 248.674 163.494C261.29 173.924 269.904 184.586 274.365 190.736C270.019 196.946 261.548 207.807 249.061 218.475C230.885 234.005 204.666 248.755 170.441 248.829Z" stroke="#181818" stroke-width="20"/>
<path d="M169.966 227.022C189.612 227.022 205.539 211.095 205.539 191.449C205.539 171.803 189.612 155.876 169.966 155.876C150.32 155.876 134.394 171.803 134.394 191.449C134.394 211.095 150.32 227.022 169.966 227.022Z" fill="#181818"/>
</svg>
